<?xml version="1.0" encoding="UTF-8" standalone="no"?><!DOCTYPE svg PUBLIC "-//W3C//DTD SVG 1.1//EN" "http://www.w3.org/Graphics/SVG/1.1/DTD/svg11.dtd"><svg width="100%" height="100%" viewBox="0 0 3542 1250" version="1.1" xmlns="http://www.w3.org/2000/svg" xmlns:xlink="http://www.w3.org/1999/xlink" xml:space="preserve" xmlns:serif="http://www.serif.com/" style="fill-rule:evenodd;clip-rule:evenodd;stroke-linejoin:round;stroke-miterlimit:2;"><path d="M163.976,928.847l-5.043,-0c-21.433,-3.783 -27.737,-27.737 -27.737,-57.996c-0,-52.952 21.433,-126.077 28.998,-147.511c6.304,-1.26 16.39,0 20.172,-6.303l1.261,-3.783c-0,-6.304 -3.782,-12.608 -11.347,-17.651c18.912,-52.952 42.866,-98.34 60.517,-115.991c2.522,-2.521 3.782,-6.304 3.782,-10.086c0,-5.043 -2.521,-10.086 -7.564,-11.347c-15.129,-3.782 -39.084,-15.129 -61.778,-15.129c-8.826,-0 -18.912,2.521 -26.476,7.564c10.086,-81.95 74.385,-287.456 173.986,-298.803l10.087,-0c52.952,-0 69.342,49.17 69.342,112.209c0,90.775 -32.78,206.767 -44.127,245.851c-7.564,27.737 -34.041,108.426 -69.342,181.551c-10.087,-5.043 -21.434,-7.564 -31.52,-7.564c-31.519,-0 -60.517,22.694 -75.646,52.952l-1.261,3.782c-0,5.044 7.565,11.347 12.608,11.347c18.911,0 36.562,6.304 52.952,17.651c-23.954,35.302 -49.17,59.257 -71.864,59.257Zm283.674,129.859c34.041,0 64.3,-23.954 83.212,-51.691l2.521,-6.304c0,-7.565 -6.304,-12.608 -13.868,-12.608c-2.522,0 -6.304,1.261 -8.826,3.782c-2.521,2.522 -7.565,5.044 -11.347,5.044c-32.78,-0 -97.08,-73.125 -148.771,-132.382c51.691,-69.342 92.036,-161.379 118.513,-255.937c17.65,-64.3 27.737,-129.86 27.737,-187.855c-0,-129.86 -50.431,-229.461 -184.074,-229.461c-173.986,-0 -308.889,268.545 -312.672,419.837l0,7.565c0,51.692 13.869,92.037 61.778,103.384c-8.825,32.78 -15.129,73.125 -15.129,110.948c0,76.907 27.737,147.51 123.556,147.51c44.127,0 85.733,-20.172 123.556,-52.952c49.17,59.256 93.297,131.12 152.554,131.12l1.26,0Z" style="fill:#fff;fill-rule:nonzero;"/><path d="M803.189,918.76c23.955,-1.26 51.692,-30.258 79.429,-70.603c37.823,-56.735 74.385,-134.903 98.34,-186.595c1.261,-2.521 1.261,-3.782 1.261,-6.303c-0,-3.783 -2.522,-7.565 -6.304,-10.087c-2.522,-1.26 -5.043,-1.26 -6.304,-1.26c-3.782,-0 -8.825,1.26 -11.347,7.564c-21.433,46.649 -57.996,123.556 -93.297,177.769c-23.955,36.563 -46.649,63.039 -63.039,64.3c-7.565,-0 -8.825,-11.347 -8.825,-28.998c2.521,-90.776 84.472,-307.629 100.862,-347.974l1.26,-5.043c0,-20.172 -39.084,-37.823 -69.342,-37.823c-15.13,0 -27.737,5.043 -31.52,15.129c-12.607,27.737 -32.78,80.69 -50.431,137.425c-34.04,92.036 -63.038,155.075 -89.515,196.681c-32.78,52.952 -56.734,70.603 -70.603,70.603c-6.304,-0 -7.565,-11.347 -7.565,-28.998c2.522,-90.776 84.472,-307.629 100.862,-347.974l1.261,-5.043c0,-18.911 -39.084,-37.823 -69.342,-37.823c-15.13,0 -26.477,5.043 -31.52,15.129c-18.911,40.345 -64.299,165.162 -83.211,253.416c-7.565,34.041 -12.608,68.082 -12.608,94.558c0,21.433 2.522,39.084 10.086,51.692c13.869,26.476 46.649,30.258 78.169,30.258l16.39,0c28.997,-1.26 60.517,-37.823 86.993,-80.689c11.347,-16.39 21.433,-34.041 28.998,-50.431c-2.522,17.651 -3.782,34.041 -3.782,49.17c-0,21.433 2.521,39.084 10.086,51.692c13.868,26.476 46.648,30.258 78.168,30.258l16.39,0Z" style="fill:#fff;fill-rule:nonzero;"/><path d="M1025.09,918.76c57.996,-2.521 134.903,-167.683 175.248,-257.198c1.261,-2.521 1.261,-3.782 1.261,-6.303c-0,-5.044 -2.522,-8.826 -6.304,-10.087l-6.304,-1.26c-5.043,-0 -8.826,1.26 -11.347,7.564c-35.302,79.429 -113.47,240.808 -155.075,242.069c-7.565,-0 -10.087,-7.565 -10.087,-21.433c0,-76.907 88.255,-327.802 98.341,-355.539l1.261,-5.043c-0,-18.911 -39.084,-37.823 -69.343,-37.823c-13.869,0 -26.476,5.043 -31.519,15.129c-18.912,46.649 -60.518,158.858 -80.69,253.416c-6.304,32.78 -11.347,64.3 -11.347,90.776c0,22.694 3.782,42.866 11.347,55.474c13.869,26.476 46.649,30.258 78.168,30.258l16.39,0Zm92.037,-491.702c10.086,0 18.911,-2.521 21.433,-8.825c8.825,-18.912 26.476,-64.3 32.78,-75.647c2.522,-2.521 2.522,-6.303 2.522,-8.825c-0,-18.912 -37.824,-39.084 -66.821,-39.084c-13.869,0 -25.216,3.782 -28.998,15.129c-7.565,16.39 -22.694,65.561 -22.694,85.733c-0,16.39 36.562,31.519 61.778,31.519Z" style="fill:#fff;fill-rule:nonzero;"/><path d="M1311.28,918.76c12.608,0 27.737,-1.26 45.388,-7.564c50.431,-17.651 119.773,-74.386 202.985,-249.634c1.26,-2.521 1.26,-5.043 1.26,-5.043c0,-5.043 -2.521,-8.825 -6.304,-11.347c0,0 -2.521,-1.26 -6.303,-1.26c-3.783,-0 -7.565,1.26 -10.087,7.564c-79.428,165.162 -142.467,219.375 -187.855,235.765c-10.086,2.522 -18.912,3.782 -27.737,3.782c-6.304,0 -12.608,-1.26 -18.912,-2.521c-36.562,-12.608 -49.17,-56.735 -49.17,-100.862c0,-25.216 3.782,-50.431 10.086,-69.343c25.216,-94.558 97.08,-182.812 132.382,-182.812l3.782,0c5.043,1.261 7.565,5.043 7.565,11.347c-0,20.172 -25.216,63.039 -30.259,71.864c-1.261,1.261 -1.261,3.782 -1.261,5.043c0,5.043 1.261,8.826 5.043,11.347c7.565,5.043 16.39,7.565 23.955,7.565c12.608,-0 23.955,-6.304 34.041,-17.651c13.869,-16.39 22.694,-41.606 22.694,-65.56c-0,-36.563 -18.912,-73.125 -69.343,-83.211c-8.825,-1.261 -18.911,-2.522 -27.737,-2.522c-92.036,0 -158.857,95.819 -190.377,177.769c-15.129,40.345 -23.954,81.951 -23.954,121.035c-0,79.428 39.084,142.467 146.249,146.249l13.869,0Z" style="fill:#fff;fill-rule:nonzero;"/><path d="M1821.89,918.76c55.474,0 110.948,-76.907 191.637,-257.198c1.261,-2.521 1.261,-3.782 1.261,-5.043c0,-6.304 -6.304,-12.607 -13.868,-12.607c-3.783,-0 -7.565,2.521 -10.086,7.564c-78.169,171.466 -128.6,234.504 -161.38,240.808c-31.519,-3.782 -12.607,-219.375 -57.995,-242.069c-8.826,-3.782 -21.433,-5.043 -34.041,-5.043l-17.651,1.261c30.259,-28.998 147.511,-132.381 181.552,-132.381l8.825,1.261c7.565,-0 11.347,-6.304 11.347,-12.608c-0,-17.651 -47.91,-30.259 -75.647,-30.259l-13.868,1.261c-54.213,10.086 -148.772,132.381 -187.856,191.638c45.388,-139.946 102.123,-289.978 115.992,-325.28l1.261,-5.043c-0,-20.173 -42.867,-37.823 -74.386,-37.823c-15.129,-0 -27.737,3.782 -31.52,13.868c-32.78,76.907 -170.204,461.444 -170.204,561.045c3.782,39.084 27.737,46.648 71.864,46.648l6.304,0c10.086,0 17.651,-1.26 17.651,-12.607c1.261,-26.477 12.608,-76.908 30.258,-137.425c3.783,-6.304 47.91,-61.778 59.257,-71.864c6.304,-5.043 11.347,-6.304 16.39,-6.304c7.564,0 13.868,6.304 16.39,20.173c8.825,49.17 10.086,139.946 32.78,177.769c12.608,23.955 63.039,30.258 85.733,30.258Z" style="fill:#fff;fill-rule:nonzero;"/><path d="M2285.86,980.538c7.564,0 12.608,-6.303 12.608,-12.607c-0,-45.388 44.127,-195.42 73.124,-286.196c20.173,16.39 36.563,23.955 61.778,23.955l11.347,-0c99.602,-8.826 190.377,-89.515 237.026,-185.334c23.955,-49.171 35.302,-93.298 35.302,-131.121c-0,-127.338 -121.035,-195.42 -288.718,-196.681l-15.129,0c-147.511,0 -288.717,35.302 -404.709,134.903c-12.607,10.086 -17.65,28.998 -17.65,49.17c-0,46.649 27.737,107.166 56.734,119.774l10.087,2.522c6.303,-0 11.347,-3.783 12.607,-11.347c32.78,-160.119 240.808,-238.287 398.405,-238.287c18.912,0 36.563,1.261 52.953,3.782c75.646,10.087 102.122,51.692 102.122,100.862c0,56.735 -34.041,123.556 -68.081,170.205c-46.649,64.3 -107.166,114.731 -153.815,114.731l-16.39,-2.522c32.78,-100.862 66.821,-208.028 104.644,-306.368l1.261,-5.043c0,-20.173 -42.866,-39.084 -74.386,-39.084c-15.129,-0 -27.737,3.782 -31.519,13.868c-20.172,46.649 -88.254,249.634 -136.164,416.056c-26.476,95.819 -46.648,179.03 -46.648,218.114c-0,5.043 -0,10.086 1.26,13.868c6.304,27.737 40.345,32.78 69.343,32.78l12.608,0Z" style="fill:#fff;fill-rule:nonzero;"/><path d="M2791.43,879.676l-3.782,0c-18.912,-2.521 -26.476,-25.215 -26.476,-56.734c-0,-90.776 66.821,-262.242 127.338,-272.328l6.304,0c16.39,0 23.955,12.608 27.737,28.998c-23.955,6.304 -46.649,42.866 -46.649,79.429c0,21.433 7.565,44.127 27.737,59.256c-13.868,39.084 -63.038,161.379 -112.209,161.379Zm-8.825,39.084c86.993,0 148.771,-100.861 176.508,-180.29l10.087,-0c50.431,-0 103.383,-27.737 128.599,-75.647c1.26,-2.521 1.26,-5.043 1.26,-7.564c0,-3.783 -1.26,-7.565 -5.043,-8.826c-2.521,-1.261 -5.043,-2.521 -7.564,-2.521c-3.783,-0 -7.565,1.26 -10.087,6.303c-21.433,41.606 -66.821,63.039 -108.426,63.039c8.825,-28.998 16.39,-68.082 16.39,-104.644c-0,-59.256 -17.651,-115.991 -78.168,-131.121c-11.347,-2.521 -21.433,-3.782 -31.519,-3.782c-117.253,0 -204.246,170.205 -204.246,300.064c0,80.69 32.78,144.989 112.209,144.989Z" style="fill:#fff;fill-rule:nonzero;"/><path d="M3140.66,918.76c26.476,-1.26 54.213,-34.04 68.082,-54.213c42.866,-56.735 84.472,-144.989 110.948,-202.985c1.261,-2.521 1.261,-3.782 1.261,-6.303c-0,-3.783 -2.522,-7.565 -6.304,-10.087c-2.522,-1.26 -5.043,-1.26 -6.304,-1.26c-5.043,-0 -8.825,1.26 -11.347,7.564c-25.215,52.953 -68.082,144.989 -107.166,199.203c-7.564,10.086 -31.519,42.866 -47.909,42.866l-2.522,-0c-2.521,-0 -2.521,-5.043 -2.521,-12.608l1.26,-25.215c13.869,-129.86 146.25,-476.573 161.38,-516.918l1.26,-3.782c0,-17.651 -41.605,-39.084 -74.385,-39.084c-15.13,-0 -27.737,5.043 -34.041,15.129c-20.173,46.649 -150.032,369.407 -150.032,523.222c-0,21.433 2.521,40.344 8.825,54.213c12.608,26.476 41.606,30.258 71.864,30.258l17.651,0Z" style="fill:#fff;fill-rule:nonzero;"/><path d="M3361.3,918.76c26.476,-1.26 54.213,-34.04 68.081,-54.213c42.867,-56.735 84.472,-144.989 110.948,-202.985c1.261,-2.521 1.261,-3.782 1.261,-6.303c0,-3.783 -2.521,-7.565 -6.304,-10.087c-2.521,-1.26 -5.043,-1.26 -6.303,-1.26c-5.044,-0 -8.826,1.26 -11.347,7.564c-25.216,52.953 -68.082,144.989 -107.166,199.203c-7.565,10.086 -31.52,42.866 -47.91,42.866l-2.521,-0c-2.522,-0 -2.522,-5.043 -2.522,-12.608l1.261,-25.215c13.868,-129.86 146.25,-476.573 161.379,-516.918l1.261,-3.782c-0,-17.651 -41.606,-39.084 -74.386,-39.084c-15.129,-0 -27.737,5.043 -34.041,15.129c-20.172,46.649 -150.032,369.407 -150.032,523.222c0,21.433 2.522,40.344 8.826,54.213c12.607,26.476 41.605,30.258 71.864,30.258l17.651,0Z" style="fill:#fff;fill-rule:nonzero;"/></svg>